<?xml version="1.0" encoding="utf-8"?>
<!-- Generator: Adobe Illustrator 27.3.1, SVG Export Plug-In . SVG Version: 6.00 Build 0)  -->
<svg version="1.1" id="Layer_1" xmlns="http://www.w3.org/2000/svg" xmlns:xlink="http://www.w3.org/1999/xlink" x="0px" y="0px"
	 viewBox="0 0 32 32" style="enable-background:new 0 0 32 32;" xml:space="preserve">
<style type="text/css">
	.st0{display:none;fill:#0A305E;}
	.st1{fill:#FFFFFF;}
</style>
<g>
	<path class="st0" d="M16,30.67C7.91,30.67,1.33,24.09,1.33,16C1.33,7.91,7.91,1.33,16,1.33c8.09,0,14.67,6.58,14.67,14.67
		C30.67,24.09,24.09,30.67,16,30.67z"/>
	<path class="st1" d="M16,1.83c7.83,0,14.17,6.35,14.17,14.17v0c0,7.83-6.35,14.17-14.17,14.17h0C8.17,30.17,1.83,23.83,1.83,16v0
		C1.83,8.17,8.17,1.83,16,1.83L16,1.83 M16,0.83L16,0.83C7.63,0.83,0.83,7.63,0.83,16c0,8.37,6.81,15.17,15.17,15.17
		c8.37,0,15.17-6.81,15.17-15.17C31.17,7.63,24.37,0.83,16,0.83L16,0.83z"/>
</g>
<g>
	<path class="st1" d="M16,27.13c-2.23,0-4.04-1.81-4.04-4.04v-0.68H8.45c-1.98,0-2.41-0.01-2.69-0.22c-0.28-0.2-0.4-0.42-0.44-0.77
		c-0.04-0.34,0.17-0.68,1.39-2.69c1.14-1.86,1.7-4.11,1.7-6.74c0-1.88,0.82-3.72,2.24-5.05c1.43-1.34,3.33-2.07,5.35-2.07
		c2.02,0,3.92,0.74,5.35,2.07c1.44,1.35,2.24,3.14,2.24,5.05c0,2.63,0.56,4.88,1.67,6.69c1.25,2.05,1.46,2.4,1.42,2.74
		c-0.03,0.35-0.15,0.56-0.44,0.77c-0.28,0.21-0.71,0.21-2.68,0.21h-3.51v0.68C20.04,25.32,18.23,27.13,16,27.13z M12.96,22.41v0.68
		c0,1.68,1.36,3.04,3.04,3.04c1.68,0,3.04-1.36,3.04-3.04v-0.68H12.96z M16,5.87c-1.76,0-3.42,0.64-4.67,1.81
		c-1.22,1.14-1.92,2.71-1.92,4.31c0,2.81-0.61,5.24-1.81,7.21c-0.7,1.15-1.23,2.01-1.28,2.22c0.16-0.01,1.08-0.01,2.14-0.01h15.1
		c1.06,0,1.97,0,2.16-0.06c-0.08-0.14-0.61-1-1.28-2.1c-1.23-2.02-1.84-4.45-1.84-7.26c0-1.63-0.68-3.16-1.92-4.31
		C19.42,6.51,17.76,5.87,16,5.87z"/>
</g>
</svg>
