<?xml version="1.0" encoding="utf-8"?>
<!-- Generator: Adobe Illustrator 27.3.1, SVG Export Plug-In . SVG Version: 6.00 Build 0)  -->
<svg version="1.1" id="Layer_1" xmlns="http://www.w3.org/2000/svg" xmlns:xlink="http://www.w3.org/1999/xlink" x="0px" y="0px"
	 viewBox="0 0 32 32" style="enable-background:new 0 0 32 32;" xml:space="preserve">
<style type="text/css">
	.st0{display:none;fill:#FFFFFF;}
	.st1{fill:#FFFFFF;}
</style>
<g>
	<path class="st0" d="M16,30.7C7.9,30.7,1.3,24.1,1.3,16S7.9,1.3,16,1.3S30.7,7.9,30.7,16S24.1,30.7,16,30.7z"/>
	<path class="st1" d="M16,1.8c7.8,0,14.2,6.4,14.2,14.2l0,0c0,7.8-6.4,14.2-14.2,14.2l0,0C8.2,30.2,1.8,23.8,1.8,16l0,0
		C1.8,8.2,8.2,1.8,16,1.8L16,1.8 M16,0.8L16,0.8C7.6,0.8,0.8,7.6,0.8,16S7.6,31.2,16,31.2S31.2,24.4,31.2,16S24.4,0.8,16,0.8L16,0.8
		z"/>
</g>
<path class="st1" d="M25.6,15.6H16H6.4C6.2,15.6,6,15.8,6,16v0.1c0,0.2,0.2,0.4,0.4,0.4H16h9.6c0.2,0,0.4-0.2,0.4-0.4V16
	C26,15.8,25.8,15.6,25.6,15.6z"/>
<path class="st1" d="M25.6,20.5H16H6.4c-0.2,0-0.4,0.2-0.4,0.4V21c0,0.2,0.2,0.4,0.4,0.4H16h9.6c0.2,0,0.4-0.2,0.4-0.4v-0.1
	C26,20.7,25.8,20.5,25.6,20.5z"/>
<path class="st1" d="M25.6,10.7H16H6.4c-0.2,0-0.4,0.2-0.4,0.4v0.1c0,0.2,0.2,0.4,0.4,0.4H16h9.6c0.2,0,0.4-0.2,0.4-0.4v-0.1
	C26,10.9,25.8,10.7,25.6,10.7z"/>
</svg>
