<?xml version="1.0" encoding="utf-8"?>
<!-- Generator: Adobe Illustrator 27.3.1, SVG Export Plug-In . SVG Version: 6.00 Build 0)  -->
<svg version="1.1" id="Layer_1" xmlns="http://www.w3.org/2000/svg" xmlns:xlink="http://www.w3.org/1999/xlink" x="0px" y="0px"
	 viewBox="0 0 32 32" style="enable-background:new 0 0 32 32;" xml:space="preserve">
<style type="text/css">
	.st0{display:none;fill:#0A305E;}
	.st1{fill:#FFFFFF;}
</style>
<g>
	<path class="st0" d="M16,30.67C7.91,30.67,1.33,24.09,1.33,16C1.33,7.91,7.91,1.33,16,1.33c8.09,0,14.67,6.58,14.67,14.67
		C30.67,24.09,24.09,30.67,16,30.67z"/>
	<path class="st1" d="M16,1.83c7.83,0,14.17,6.35,14.17,14.17v0c0,7.83-6.35,14.17-14.17,14.17h0C8.17,30.17,1.83,23.83,1.83,16v0
		C1.83,8.17,8.17,1.83,16,1.83L16,1.83 M16,0.83L16,0.83C7.63,0.83,0.83,7.63,0.83,16c0,8.37,6.81,15.17,15.17,15.17
		c8.37,0,15.17-6.81,15.17-15.17C31.17,7.63,24.37,0.83,16,0.83L16,0.83z"/>
</g>
<g>
	<path class="st1" d="M24.74,25.21c-0.12,0-0.24-0.05-0.34-0.14l-3.87-3.9c-1.46,1.31-3.39,2.1-5.5,2.1c-4.55,0-8.24-3.7-8.24-8.24
		s3.7-8.24,8.24-8.24s8.24,3.7,8.24,8.24c0,2.1-0.79,4.01-2.08,5.47l3.88,3.9c0.19,0.19,0.18,0.49,0,0.67
		C24.98,25.17,24.86,25.21,24.74,25.21z M15.03,7.74c-4.02,0-7.3,3.27-7.3,7.3c0,4.02,3.27,7.3,7.3,7.3c2,0,3.81-0.81,5.12-2.11
		c0.01-0.02,0.03-0.03,0.04-0.05c0.01-0.01,0.03-0.03,0.05-0.04c1.29-1.32,2.08-3.12,2.08-5.1C22.33,11.01,19.06,7.74,15.03,7.74z"
		/>
</g>
</svg>
