<?xml version="1.0" encoding="utf-8"?>
<!-- Generator: Adobe Illustrator 27.3.1, SVG Export Plug-In . SVG Version: 6.00 Build 0)  -->
<svg version="1.1" id="Layer_1" xmlns="http://www.w3.org/2000/svg" xmlns:xlink="http://www.w3.org/1999/xlink" x="0px" y="0px"
	 viewBox="0 0 86.57 137.13" style="enable-background:new 0 0 86.57 137.13;" xml:space="preserve">
<style type="text/css">
	.st0{fill:url(#SVGID_1_);}
	.st1{fill:url(#SVGID_00000044863273553737047700000010855395620397210548_);}
	.st2{opacity:0.6;}
	.st3{opacity:0.5;}
	.st4{fill:url(#SVGID_00000148659944660928870860000012192890954102768566_);}
	.st5{fill:url(#SVGID_00000041273289858532284500000011737402148133470366_);}
</style>
<g>
	<g id="Layer_2_00000013875411713361255790000010903854496404905124_">
		<g id="Layer_1-2">
			<g>
				<g>
					<g>
						
							<linearGradient id="SVGID_1_" gradientUnits="userSpaceOnUse" x1="43.29" y1="124.45" x2="43.29" y2="58.19" gradientTransform="matrix(1 0 0 -1 0 138)">
							<stop  offset="0" style="stop-color:#98E18B"/>
							<stop  offset="1" style="stop-color:#00CEDF"/>
						</linearGradient>
						<path class="st0" d="M43.28,43.99l-1.35-0.46c-11.52-3.92-19.69-14.69-20.36-26.81v-0.3c-0.04-0.43-0.05-0.86-0.05-1.29v-7.7
							l4.21,0.02c2.59,0.02,5.14,0.36,7.63,1.03c2.09-2.85,4.72-5.28,7.74-7.13l2.19-1.34l2.19,1.34c3.01,1.85,5.64,4.28,7.74,7.13
							c2.48-0.67,5.04-1.01,7.63-1.03l4.21-0.02v7.7c0,0.42-0.01,0.84-0.03,1.26v0.27c-0.66,12.15-8.84,22.94-20.39,26.88L43.29,44
							L43.28,43.99z M29.94,16.27c0.46,8.26,5.75,15.65,13.35,18.82c7.61-3.18,12.9-10.57,13.36-18.82
							c-0.85,0.17-1.69,0.4-2.51,0.68l0,0c-0.38,0.13-0.75,0.27-1.12,0.42l-3.43,1.37L47.8,15.5c-1.15-2.09-2.68-3.93-4.49-5.44
							c-1.81,1.51-3.34,3.35-4.49,5.44l-1.79,3.24l-3.43-1.37c-0.37-0.15-0.75-0.29-1.13-0.42c-0.83-0.28-1.67-0.5-2.51-0.68
							L29.94,16.27z"/>
						
							<linearGradient id="SVGID_00000093137284078454987710000012397831259088276147_" gradientUnits="userSpaceOnUse" x1="43.285" y1="124.45" x2="43.285" y2="58.19" gradientTransform="matrix(1 0 0 -1 0 138)">
							<stop  offset="0" style="stop-color:#98E18B"/>
							<stop  offset="1" style="stop-color:#00CEDF"/>
						</linearGradient>
						<path style="fill:url(#SVGID_00000093137284078454987710000012397831259088276147_);" d="M43.29,137.13l-0.97-0.23
							c-15.8-3.78-26.78-10.14-33.56-19.47c-5.96-8.17-8.72-18.5-8.69-32.5c0-0.07,0-0.15,0-0.22C0.02,83.74,0,82.86,0,82.01V41.87
							l4.21,0.02c6.59,0.04,13.08,1.12,19.3,3.22c3.82,1.28,7.55,2.97,11.08,5.01c3.06,1.76,5.97,3.79,8.7,6.07
							c2.73-2.28,5.64-4.31,8.71-6.07c3.51-2.03,7.24-3.72,11.07-5.01c6.21-2.1,12.71-3.18,19.29-3.22l4.21-0.02v40.14
							c0,0.86-0.02,1.74-0.07,2.7c0,0.07,0,0.13,0,0.2c0.03,14.01-2.73,24.34-8.67,32.51c-6.78,9.33-17.75,15.69-33.55,19.47
							l-0.97,0.23L43.29,137.13z M8.43,84.43v0.1l0.01,0.28c-0.07,21,5.86,36.49,34.84,43.72c28.96-7.23,34.89-22.72,34.82-43.72
							v-0.25l0.01-0.18c0.04-0.84,0.07-1.61,0.07-2.35V50.48c-4.24,0.36-8.42,1.23-12.45,2.59c-3.3,1.11-6.52,2.57-9.56,4.33
							c-2.39,1.37-4.66,2.93-6.81,4.66c6.1,6.67,12.32,14.48,15.01,23.08c0.61,1.96,0.68,4.14,0.68,6.2
							c0,11.22-9.41,21.32-21.75,21.38c-11.23,0.05-21.78-10.16-21.78-21.38c0-2.06,0.31-4.1,0.92-6.06
							c2.68-8.61,8.66-16.55,14.73-23.22c-2.15-1.73-4.42-3.29-6.8-4.65c-3.06-1.77-6.27-3.22-9.57-4.33l0,0
							c-4.04-1.37-8.2-2.23-12.44-2.59v31.55c0,0.73,0.02,1.5,0.06,2.35v0.06L8.43,84.43z M43.27,67.79
							c-5.2,5.74-10.54,12.57-12.83,19.96c-0.36,1.15-0.54,2.35-0.54,3.57c0,6.61,6.79,13.01,13.41,13.01s13.37-6.4,13.37-13.01
							c0-1.22-0.18-2.41-0.54-3.56C53.83,80.37,48.89,73.64,43.27,67.79L43.27,67.79z"/>
					</g>
					<g class="st2">
						<g class="st3">
							
								<linearGradient id="SVGID_00000129184045615840337270000007475778708461051010_" gradientUnits="userSpaceOnUse" x1="46.4565" y1="73.1951" x2="51.7265" y2="66.5251" gradientTransform="matrix(1 0 0 -1 0 138)">
								<stop  offset="0" style="stop-color:#0071BB"/>
								<stop  offset="0.06" style="stop-color:#0471BB;stop-opacity:0.91"/>
								<stop  offset="0.28" style="stop-color:#1673BB;stop-opacity:0.59"/>
								<stop  offset="0.48" style="stop-color:#2474BB;stop-opacity:0.34"/>
								<stop  offset="0.66" style="stop-color:#2E76BB;stop-opacity:0.15"/>
								<stop  offset="0.81" style="stop-color:#3476BB;stop-opacity:0.04"/>
								<stop  offset="0.9" style="stop-color:#3777BB;stop-opacity:0"/>
							</linearGradient>
							<path style="fill:url(#SVGID_00000129184045615840337270000007475778708461051010_);" d="M43.27,67.77
								c3.09,3.39,6.36,7.11,8.81,11.21c1.98-1.92,4.04-3.92,6.79-4.88c-3.63-5.92-6.66-8.64-9.51-12.09c0,0-3.1,2.63-6.09,5.75
								L43.27,67.77z"/>
						</g>
						<g class="st3">
							
								<linearGradient id="SVGID_00000116927700924818361900000009099395196177784460_" gradientUnits="userSpaceOnUse" x1="7071.5137" y1="-6649.5181" x2="7076.6035" y2="-6655.9482" gradientTransform="matrix(-0.0441 -0.999 0.999 -0.0441 6995.5991 6830.7847)">
								<stop  offset="0" style="stop-color:#0071BB"/>
								<stop  offset="0.06" style="stop-color:#0471BB;stop-opacity:0.91"/>
								<stop  offset="0.28" style="stop-color:#1673BB;stop-opacity:0.59"/>
								<stop  offset="0.48" style="stop-color:#2474BB;stop-opacity:0.34"/>
								<stop  offset="0.66" style="stop-color:#2E76BB;stop-opacity:0.15"/>
								<stop  offset="0.81" style="stop-color:#3476BB;stop-opacity:0.04"/>
								<stop  offset="0.9" style="stop-color:#3777BB;stop-opacity:0"/>
							</linearGradient>
							<path style="fill:url(#SVGID_00000116927700924818361900000009099395196177784460_);" d="M37.18,62.02
								c-3.51-2.65-6.82-4.86-10.95-6.79c2.21-1.76,3.76-4.34,4.59-7.13c4.44,2.18,8.64,4.88,12.46,8.07
								C43.28,56.17,40.16,58.6,37.18,62.02z"/>
						</g>
					</g>
				</g>
			</g>
		</g>
	</g>
</g>
</svg>
